<svg width="80" height="80" viewBox="0 0 80 80" fill="none" xmlns="http://www.w3.org/2000/svg">
<path d="M15 5H65C70.5 5 75 9.5 75 15V65C75 70.5 70.5 75 65 75H15C9.5 75 5 70.5 5 65V15C5 9.5 9.5 5 15 5Z" fill="white"/>
<path d="M68.75 40C68.75 36 64 32.75 57 30.5C58.75 23.25 58 17.5 54.75 15.75C53.75 15.25 53 15 52 15C48.75 15 44.75 17.25 40.75 21.25C36.5 17.25 32.5 15 29.25 15C28.25 15 27.25 15.25 26.5 15.75C23.25 17.5 22.5 23.25 24.25 30.5C17.25 32.75 12.5 36 12.5 40C12.5 44 17.25 47.25 24.25 49.5C22.5 56.75 23 62.5 26.5 64.5C27.25 65 28.25 65.25 29.25 65.25C32.5 65.25 36.5 63 40.5 59C44.5 63 48.75 65.25 51.75 65.25C52.75 65.25 53.75 65 54.5 64.5C57.75 62.5 58.5 56.75 56.75 49.5C64 47.25 68.75 43.75 68.75 40ZM52 17.75C52.5 17.75 53 17.75 53.25 18C54.75 19 55.5 22.25 55 26.5C54.75 27.5 54.75 28.75 54.5 29.75C52.25 29.25 49.75 28.75 47.25 28.5C45.75 26.5 44.25 24.5 42.75 23C46.25 19.5 49.75 17.75 52 17.75ZM48.25 44.5C47.5 46 46.5 47.25 45.75 48.75C44 48.75 42.5 49 40.75 49C39 49 37.25 49 35.75 48.75C34.75 47.5 34 46 33.25 44.5C32.5 43 31.75 41.5 31 40C31.75 38.5 32.5 37 33.25 35.5C34 34 35 32.5 36 31.25C37.5 31.25 39.25 31 41 31C42.75 31 44.25 31 46 31.25C47 32.5 47.75 34 48.75 35.5C49.5 37 50.25 38.5 51 40C50 41.5 49 43 48.25 44.5ZM52 43.25C52.5 44.75 53 46 53.5 47.5C52 47.75 50.5 48 49 48.25C49.5 47.5 50 46.75 50.5 45.75C51 45 51.5 44 52 43.25ZM40.5 55C39.5 54 38.5 52.75 37.5 51.5C38.5 51.5 39.5 51.5 40.5 51.5C41.5 51.5 42.5 51.5 43.5 51.5C42.5 52.75 41.5 54 40.5 55ZM32 48.25C30.5 48 29 47.75 27.5 47.5C28 46 28.5 44.75 29 43.25C29.5 44 30 45 30.5 45.75C31 46.75 31.5 47.5 32 48.25ZM29.25 36.75C28.75 35.25 28.25 33.75 27.75 32.5C29.25 32.25 30.75 32 32.25 31.75C31.75 32.5 31.25 33.5 30.75 34.25C30 35 29.5 36 29.25 36.75ZM40.5 25C41.5 26 42.5 27.25 43.5 28.5C42.5 28.5 41.5 28.5 40.5 28.5C39.5 28.5 38.5 28.5 37.5 28.5C38.5 27.25 39.5 26 40.5 25ZM50.5 34.25C50 33.25 49.5 32.5 49 31.75C50.5 32 52 32.25 53.5 32.5C53 34 52.5 35.5 52 36.75C51.5 36 51 35 50.5 34.25ZM26.25 26.5C25.75 22.25 26.25 19 28 18C28.25 17.75 28.75 17.75 29.25 17.75C31.5 17.75 35 19.5 38.75 23.25C37.25 25 35.75 26.75 34.25 28.75C31.75 29 29.25 29.5 27 30C26.5 28.75 26.25 27.5 26.25 26.5ZM21.75 45.5C17.75 43.75 15.25 41.75 15.25 39.75C15.25 38 17.75 35.75 21.75 34C22.75 33.5 23.75 33.25 25 33C25.75 35.25 26.5 37.5 27.5 39.75C26.5 42 25.5 44.25 25 46.5C23.75 46.5 22.75 46 21.75 45.5ZM28 62C26.5 61 25.75 57.75 26.25 53.5C26.5 52.5 26.5 51.25 27 50C29.25 50.5 31.5 51 34 51.25C35.5 53.25 37 55.25 38.75 57C35 60.5 31.5 62.5 29.25 62.5C28.75 62.25 28.25 62.25 28 62ZM55 53.5C55.5 57.75 55 61 53.25 62C53 62.25 52.5 62.25 52 62.25C49.75 62.25 46.25 60.5 42.5 56.75C44 55 45.75 53.25 47.25 51C49.75 50.75 52.25 50.5 54.25 49.75C54.5 51.25 54.75 52.5 55 53.5ZM59.5 45.5C58.5 46 57.5 46.25 56.25 46.75C55.5 44.5 54.75 42.25 53.75 40C54.75 37.75 55.75 35.25 56.25 33.25C57.5 33.5 58.5 34 59.5 34.25C63.5 36 66 38 66 40C66 41.75 63.5 44 59.5 45.5Z" fill="#090909"/>
<path d="M40.75 45.25C43.75 45.25 46 43 46 40C46 37 43.75 34.75 40.75 34.75C37.75 34.75 35.5 37 35.5 40C35.5 43 37.75 45.25 40.75 45.25Z" fill="#090909"/>
</svg>
