<svg width="80" height="80" viewBox="0 0 80 80" fill="none" xmlns="http://www.w3.org/2000/svg">
<g clip-path="url(#clip0_314_111)">
<path d="M45.4036 74.6431C46.8235 73.6288 48.852 72.0061 49.9676 70.9918C69.4139 78.7173 75.7582 63.6177 75.2517 57.8548C74.6908 51.4735 66.7675 33.2624 39.8254 33.2621C38.5586 36.2313 34.8541 37.7209 31.79 35.9461C28.0298 33.768 28.0298 28.2933 31.79 26.1153C34.711 24.4233 38.2136 25.6985 39.6319 28.3937C55.9889 28.3105 74.3266 35.2578 79.4544 54.5888C83.1527 68.5304 67.6366 84.7829 45.4036 74.6431ZM55.4671 54.9253C58.1732 54.6064 60.519 52.3478 60.519 49.2871C60.519 44.931 55.7682 42.1937 51.9881 44.3717C48.672 46.2824 48.2657 50.7296 50.7677 53.2631C41.7924 69.997 21.747 76.5401 11.1689 70.1887C5.31114 66.6715 -0.729537 54.0806 13.3535 42.4917C12.9478 41.1731 12.3393 38.9418 12.035 37.319C-13.2849 56.3996 4.94142 86.7602 33.49 74.9369C41.2085 71.7403 49.5771 66.1536 55.4671 54.9253ZM24.5914 61.4035C28.3768 63.5815 33.1343 60.8442 33.1343 56.4881C33.1343 52.8529 29.8211 50.3477 26.5246 50.883C5.58467 11.7696 49.6713 -11.4577 55.3431 25.5538L60.4143 27.0752C56.7269 -2.69695 34.4664 0.0272408 27.3352 6.05707C21.9905 10.5763 7.70311 26.4783 22.4644 53.7175C21.042 56.2786 21.7509 59.7691 24.5914 61.4035Z" fill="white"/>
</g>
<defs>
<clipPath id="clip0_314_111">
<rect width="80" height="80" fill="white"/>
</clipPath>
</defs>
</svg>
