<svg width="298" height="36" viewBox="0 0 298 36" fill="none" xmlns="http://www.w3.org/2000/svg">
<path d="M10.216 24.22C10.216 26.212 9.856 27.856 9.136 29.152C8.44 30.448 7.504 31.456 6.328 32.176C5.176 32.92 3.796 33.556 2.188 34.084L0.604004 29.908C1.66 29.5 2.452 29.032 2.98 28.504C3.508 27.976 3.856 27.364 4.024 26.668C4.216 25.972 4.312 25.084 4.312 24.004V3.05201H10.216V24.22Z" fill="#F5F5F5"/>
<path d="M22.9378 8.27201C25.8658 8.27201 28.1578 9.17201 29.8138 10.972C31.4698 12.748 32.2978 15.244 32.2978 18.46C32.2978 20.5 31.9138 22.288 31.1458 23.824C30.4018 25.336 29.3218 26.512 27.9058 27.352C26.5138 28.192 24.8578 28.612 22.9378 28.612C20.0338 28.612 17.7418 27.724 16.0618 25.948C14.4058 24.148 13.5778 21.64 13.5778 18.424C13.5778 16.384 13.9498 14.608 14.6938 13.096C15.4618 11.56 16.5418 10.372 17.9338 9.53201C19.3498 8.692 21.0178 8.27201 22.9378 8.27201ZM22.9378 12.448C21.7858 12.448 20.9218 12.94 20.3458 13.924C19.7698 14.884 19.4818 16.384 19.4818 18.424C19.4818 20.512 19.7578 22.036 20.3098 22.996C20.8858 23.956 21.7618 24.436 22.9378 24.436C24.0898 24.436 24.9538 23.956 25.5298 22.996C26.1058 22.012 26.3938 20.5 26.3938 18.46C26.3938 16.372 26.1058 14.848 25.5298 13.888C24.9778 12.928 24.1138 12.448 22.9378 12.448Z" fill="#F5F5F5"/>
<path d="M46.8772 8.27201C48.5332 8.27201 49.8292 8.776 50.7652 9.784C51.7012 10.792 52.1692 12.208 52.1692 14.032V28H46.4812V15.004C46.4812 14.044 46.3252 13.384 46.0132 13.024C45.7252 12.64 45.2812 12.448 44.6812 12.448C43.5292 12.448 42.4252 13.276 41.3692 14.932V28H35.6812V8.88401H40.6492L41.0452 11.152C41.8612 10.192 42.7372 9.47201 43.6732 8.99201C44.6332 8.51201 45.7012 8.27201 46.8772 8.27201Z" fill="#F5F5F5"/>
<path d="M71.6506 22.456C71.6506 23.176 71.7466 23.704 71.9386 24.04C72.1546 24.376 72.4906 24.628 72.9466 24.796L71.7586 28.504C70.5826 28.408 69.6226 28.156 68.8786 27.748C68.1346 27.316 67.5586 26.644 67.1506 25.732C65.9026 27.652 63.9826 28.612 61.3906 28.612C59.4946 28.612 57.9826 28.06 56.8546 26.956C55.7266 25.852 55.1626 24.412 55.1626 22.636C55.1626 20.548 55.9306 18.952 57.4666 17.848C59.0026 16.744 61.2226 16.192 64.1266 16.192H66.0706V15.364C66.0706 14.236 65.8306 13.468 65.3506 13.06C64.8706 12.628 64.0306 12.412 62.8306 12.412C62.2066 12.412 61.4506 12.508 60.5626 12.7C59.6746 12.868 58.7626 13.108 57.8266 13.42L56.5306 9.67601C57.7306 9.22001 58.9546 8.87201 60.2026 8.632C61.4746 8.392 62.6506 8.27201 63.7306 8.27201C66.4666 8.27201 68.4706 8.836 69.7426 9.964C71.0146 11.092 71.6506 12.784 71.6506 15.04V22.456ZM63.0466 24.544C64.3426 24.544 65.3506 23.932 66.0706 22.708V19.324H64.6666C63.3706 19.324 62.3986 19.552 61.7506 20.008C61.1266 20.464 60.8146 21.172 60.8146 22.132C60.8146 22.9 61.0066 23.5 61.3906 23.932C61.7986 24.34 62.3506 24.544 63.0466 24.544Z" fill="#F5F5F5"/>
<path d="M88.1692 27.1C87.4732 27.58 86.6572 27.952 85.7212 28.216C84.8092 28.48 83.8972 28.612 82.9852 28.612C78.8092 28.588 76.7212 26.284 76.7212 21.7V12.844H74.0212V8.88401H76.7212V4.74401L82.4092 4.096V8.88401H86.8012L86.1892 12.844H82.4092V21.628C82.4092 22.516 82.5532 23.152 82.8412 23.536C83.1292 23.92 83.5852 24.112 84.2092 24.112C84.8572 24.112 85.5412 23.908 86.2612 23.5L88.1692 27.1Z" fill="#F5F5F5"/>
<path d="M101.264 8.27201C102.92 8.27201 104.216 8.776 105.152 9.784C106.088 10.792 106.556 12.208 106.556 14.032V28H100.868V15.004C100.868 14.044 100.712 13.384 100.4 13.024C100.088 12.64 99.6439 12.448 99.0679 12.448C97.9159 12.448 96.8119 13.264 95.7559 14.896V28H90.0679V1.288L95.7559 0.712006V10.936C96.5479 10.048 97.3879 9.38801 98.2759 8.95601C99.1639 8.50001 100.16 8.27201 101.264 8.27201Z" fill="#F5F5F5"/>
<path d="M126.037 22.456C126.037 23.176 126.133 23.704 126.325 24.04C126.541 24.376 126.877 24.628 127.333 24.796L126.145 28.504C124.969 28.408 124.009 28.156 123.265 27.748C122.521 27.316 121.945 26.644 121.537 25.732C120.289 27.652 118.369 28.612 115.777 28.612C113.881 28.612 112.369 28.06 111.241 26.956C110.113 25.852 109.549 24.412 109.549 22.636C109.549 20.548 110.317 18.952 111.853 17.848C113.389 16.744 115.609 16.192 118.513 16.192H120.457V15.364C120.457 14.236 120.217 13.468 119.737 13.06C119.257 12.628 118.417 12.412 117.217 12.412C116.593 12.412 115.837 12.508 114.949 12.7C114.061 12.868 113.149 13.108 112.213 13.42L110.917 9.67601C112.117 9.22001 113.341 8.87201 114.589 8.632C115.861 8.392 117.037 8.27201 118.117 8.27201C120.853 8.27201 122.857 8.836 124.129 9.964C125.401 11.092 126.037 12.784 126.037 15.04V22.456ZM117.433 24.544C118.729 24.544 119.737 23.932 120.457 22.708V19.324H119.053C117.757 19.324 116.785 19.552 116.137 20.008C115.513 20.464 115.201 21.172 115.201 22.132C115.201 22.9 115.393 23.5 115.777 23.932C116.185 24.34 116.737 24.544 117.433 24.544Z" fill="#F5F5F5"/>
<path d="M141.764 8.27201C143.42 8.27201 144.716 8.776 145.652 9.784C146.588 10.792 147.056 12.208 147.056 14.032V28H141.368V15.004C141.368 14.044 141.212 13.384 140.9 13.024C140.612 12.64 140.168 12.448 139.568 12.448C138.416 12.448 137.312 13.276 136.256 14.932V28H130.568V8.88401H135.536L135.932 11.152C136.748 10.192 137.624 9.47201 138.56 8.99201C139.52 8.51201 140.588 8.27201 141.764 8.27201Z" fill="#F5F5F5"/>
<path d="M184.764 28H178.968L178.536 18.244C178.416 15.916 178.356 13.84 178.356 12.016C178.356 10.624 178.392 9.30401 178.464 8.05601L174.612 25.372H169.032L164.928 8.05601C165.072 10.144 165.144 12.112 165.144 13.96C165.144 15.352 165.108 16.804 165.036 18.316L164.604 28H158.844L160.716 3.05201H168.168L171.912 19.972L175.404 3.05201H182.892L184.764 28Z" fill="#F5F5F5"/>
<path d="M203.381 22.456C203.381 23.176 203.477 23.704 203.669 24.04C203.885 24.376 204.221 24.628 204.677 24.796L203.489 28.504C202.313 28.408 201.353 28.156 200.609 27.748C199.865 27.316 199.289 26.644 198.881 25.732C197.633 27.652 195.713 28.612 193.121 28.612C191.225 28.612 189.713 28.06 188.585 26.956C187.457 25.852 186.893 24.412 186.893 22.636C186.893 20.548 187.661 18.952 189.197 17.848C190.733 16.744 192.953 16.192 195.857 16.192H197.801V15.364C197.801 14.236 197.561 13.468 197.081 13.06C196.601 12.628 195.761 12.412 194.561 12.412C193.937 12.412 193.181 12.508 192.293 12.7C191.405 12.868 190.493 13.108 189.557 13.42L188.261 9.67601C189.461 9.22001 190.685 8.87201 191.933 8.632C193.205 8.392 194.381 8.27201 195.461 8.27201C198.197 8.27201 200.201 8.836 201.473 9.964C202.745 11.092 203.381 12.784 203.381 15.04V22.456ZM194.777 24.544C196.073 24.544 197.081 23.932 197.801 22.708V19.324H196.397C195.101 19.324 194.129 19.552 193.481 20.008C192.857 20.464 192.545 21.172 192.545 22.132C192.545 22.9 192.737 23.5 193.121 23.932C193.529 24.34 194.081 24.544 194.777 24.544Z" fill="#F5F5F5"/>
<path d="M218.28 8.34401C218.976 8.34401 219.612 8.42801 220.188 8.596L219.288 14.104C218.568 13.936 217.992 13.852 217.56 13.852C216.432 13.852 215.568 14.248 214.968 15.04C214.392 15.808 213.936 16.972 213.6 18.532V28H207.912V8.88401H212.88L213.348 12.592C213.78 11.272 214.428 10.24 215.292 9.49601C216.18 8.72801 217.176 8.34401 218.28 8.34401Z" fill="#F5F5F5"/>
<path d="M238.407 8.88401V35.992L232.719 35.38V26.164C231.447 27.796 229.755 28.612 227.643 28.612C225.267 28.612 223.455 27.7 222.207 25.876C220.983 24.052 220.371 21.556 220.371 18.388C220.371 16.42 220.695 14.68 221.343 13.168C221.991 11.632 222.903 10.432 224.079 9.56801C225.279 8.70401 226.659 8.27201 228.219 8.27201C230.163 8.27201 231.807 9.02801 233.151 10.54L233.439 8.88401H238.407ZM229.407 24.436C230.727 24.436 231.831 23.716 232.719 22.276V14.032C232.263 13.48 231.807 13.072 231.351 12.808C230.895 12.544 230.367 12.412 229.767 12.412C228.687 12.412 227.835 12.904 227.211 13.888C226.587 14.848 226.275 16.36 226.275 18.424C226.275 20.656 226.539 22.216 227.067 23.104C227.619 23.992 228.399 24.436 229.407 24.436Z" fill="#F5F5F5"/>
<path d="M258.985 28H254.053L253.801 25.588C252.409 27.604 250.477 28.612 248.005 28.612C246.253 28.612 244.921 28.084 244.009 27.028C243.121 25.972 242.677 24.496 242.677 22.6V8.88401H248.365V21.88C248.365 22.816 248.509 23.476 248.797 23.86C249.109 24.22 249.577 24.4 250.201 24.4C251.401 24.4 252.433 23.656 253.297 22.168V8.88401H258.985V28Z" fill="#F5F5F5"/>
<path d="M280.127 18.064C280.127 18.856 280.091 19.54 280.019 20.116H268.175C268.367 21.724 268.823 22.852 269.543 23.5C270.263 24.148 271.259 24.472 272.531 24.472C273.299 24.472 274.043 24.34 274.763 24.076C275.483 23.788 276.263 23.356 277.103 22.78L279.443 25.948C277.211 27.724 274.727 28.612 271.991 28.612C268.895 28.612 266.519 27.7 264.863 25.876C263.207 24.052 262.379 21.604 262.379 18.532C262.379 16.588 262.727 14.848 263.423 13.312C264.119 11.752 265.139 10.528 266.483 9.64C267.827 8.728 269.435 8.27201 271.307 8.27201C274.067 8.27201 276.227 9.13601 277.787 10.864C279.347 12.592 280.127 14.992 280.127 18.064ZM274.547 16.444C274.499 13.516 273.467 12.052 271.451 12.052C270.467 12.052 269.699 12.412 269.147 13.132C268.619 13.852 268.295 15.04 268.175 16.696H274.547V16.444Z" fill="#F5F5F5"/>
<path d="M290.054 8.27201C291.422 8.27201 292.706 8.47601 293.906 8.88401C295.106 9.29201 296.162 9.86801 297.074 10.612L294.986 13.816C293.426 12.832 291.854 12.34 290.27 12.34C289.526 12.34 288.95 12.472 288.542 12.736C288.158 12.976 287.966 13.324 287.966 13.78C287.966 14.14 288.05 14.44 288.218 14.68C288.41 14.896 288.782 15.124 289.334 15.364C289.886 15.604 290.738 15.892 291.89 16.228C293.882 16.804 295.358 17.56 296.318 18.496C297.302 19.408 297.794 20.68 297.794 22.312C297.794 23.608 297.422 24.736 296.678 25.696C295.934 26.632 294.914 27.352 293.618 27.856C292.322 28.36 290.882 28.612 289.298 28.612C287.69 28.612 286.19 28.36 284.798 27.856C283.43 27.352 282.266 26.656 281.306 25.768L284.078 22.672C285.686 23.92 287.378 24.544 289.154 24.544C290.018 24.544 290.69 24.388 291.17 24.076C291.674 23.764 291.926 23.32 291.926 22.744C291.926 22.288 291.83 21.928 291.638 21.664C291.446 21.4 291.074 21.16 290.522 20.944C289.97 20.704 289.094 20.416 287.894 20.08C285.998 19.528 284.582 18.76 283.646 17.776C282.71 16.792 282.242 15.568 282.242 14.104C282.242 13 282.554 12.016 283.178 11.152C283.826 10.264 284.738 9.56801 285.914 9.064C287.114 8.536 288.494 8.27201 290.054 8.27201Z" fill="#F5F5F5"/>
</svg>
